<?xml version="1.0" standalone="no"?>
<!DOCTYPE svg PUBLIC "-//W3C//DTD SVG 20010904//EN"
 "http://www.w3.org/TR/2001/REC-SVG-20010904/DTD/svg10.dtd">
<svg version="1.0" xmlns="http://www.w3.org/2000/svg"
 width="900.000000pt" height="900.000000pt" viewBox="0 0 900.000000 900.000000"
 preserveAspectRatio="xMidYMid meet">

<g transform="translate(0.000000,900.000000) scale(0.100000,-0.100000)"
fill="#FFFFFF" stroke="none">
<path d="M4225 8994 c-1421 -92 -2705 -837 -3480 -2019 -137 -208 -201 -322
-303 -535 -121 -251 -184 -416 -263 -685 -256 -878 -233 -1872 64 -2715 76
-214 107 -289 198 -478 106 -220 163 -322 285 -509 572 -876 1394 -1507 2397
-1837 690 -227 1484 -275 2222 -135 1283 244 2403 1043 3059 2183 593 1028
751 2277 436 3427 -80 291 -169 523 -309 804 -229 461 -488 820 -851 1185
-675 677 -1530 1113 -2477 1266 -191 30 -385 45 -648 48 -148 2 -297 2 -330 0z
m670 -789 c671 -75 1288 -315 1816 -707 383 -283 733 -666 975 -1065 331 -546
510 -1150 539 -1823 18 -396 -63 -924 -201 -1320 -185 -532 -464 -984 -859
-1389 -657 -674 -1504 -1060 -2460 -1122 -93 -6 -237 -8 -320 -4 -832 35
-1567 306 -2210 815 -142 112 -430 395 -542 530 -179 218 -328 445 -453 690
-275 543 -402 1077 -403 1690 0 417 54 768 179 1153 254 780 765 1460 1449
1929 547 375 1195 596 1885 642 106 7 476 -4 605 -19z"/>
<path d="M4270 6855 l0 -335 -31 0 c-52 0 -223 -39 -316 -71 -386 -136 -618
-399 -706 -799 -18 -82 -21 -128 -21 -335 0 -269 12 -341 76 -454 40 -72 202
-234 293 -293 248 -163 732 -356 1200 -478 167 -44 234 -81 353 -194 79 -75
95 -112 100 -228 8 -172 -43 -319 -128 -373 -199 -126 -709 -138 -1050 -24
-171 57 -285 122 -382 220 l-56 57 -280 -258 -280 -258 33 -50 c157 -232 593
-428 1153 -517 l42 -7 0 -324 0 -324 230 0 230 0 0 315 0 315 44 0 c61 0 195
25 300 55 356 103 729 409 889 730 87 174 121 337 120 575 -1 193 -22 317 -80
462 -97 242 -256 395 -564 542 -174 83 -302 129 -600 215 -512 148 -671 212
-762 309 -95 103 -85 247 26 349 107 99 220 128 497 126 344 -1 492 -42 702
-195 58 -43 72 -48 82 -37 7 8 46 50 87 94 251 271 379 414 379 422 0 11 -68
76 -130 125 -194 154 -529 273 -872 310 l-118 12 0 328 0 328 -230 0 -230 0 0
-335z"/>
</g>
</svg>
